<?xml version="1.0" encoding="UTF-8" standalone="no"?>
<svg
   xmlns:dc="http://purl.org/dc/elements/1.1/"
   xmlns:cc="http://creativecommons.org/ns#"
   xmlns:rdf="http://www.w3.org/1999/02/22-rdf-syntax-ns#"
   xmlns:svg="http://www.w3.org/2000/svg"
   xmlns="http://www.w3.org/2000/svg"
   xmlns:sodipodi="http://sodipodi.sourceforge.net/DTD/sodipodi-0.dtd"
   xmlns:inkscape="http://www.inkscape.org/namespaces/inkscape"
   height="24"
   viewBox="0 0 24 24"
   width="24"
   version="1.1"
   id="svg6"
   sodipodi:docname="visibility-24px.svg"
   inkscape:version="0.92.4 (5da689c313, 2019-01-14)">
  <metadata
     id="metadata12">
    <rdf:RDF>
      <cc:Work
         rdf:about="">
        <dc:format>image/svg+xml</dc:format>
        <dc:type
           rdf:resource="http://purl.org/dc/dcmitype/StillImage" />
      </cc:Work>
    </rdf:RDF>
  </metadata>
  <defs
     id="defs10" />
  <sodipodi:namedview
     pagecolor="#ffffff"
     bordercolor="#666666"
     borderopacity="1"
     objecttolerance="10"
     gridtolerance="10"
     guidetolerance="10"
     inkscape:pageopacity="0"
     inkscape:pageshadow="2"
     inkscape:window-width="1920"
     inkscape:window-height="1016"
     id="namedview8"
     showgrid="false"
     inkscape:zoom="9.8333333"
     inkscape:cx="12"
     inkscape:cy="7.9322034"
     inkscape:window-x="0"
     inkscape:window-y="27"
     inkscape:window-maximized="1"
     inkscape:current-layer="svg6" />
  <path
     d="M0 0h24v24H0z"
     fill="none"
     id="path2" />
  <path
     d="M12 4.5C7 4.5 2.73 7.61 1 12c1.73 4.39 6 7.5 11 7.5s9.27-3.11 11-7.5c-1.73-4.39-6-7.5-11-7.5zM12 17c-2.76 0-5-2.24-5-5s2.24-5 5-5 5 2.24 5 5-2.24 5-5 5zm0-8c-1.66 0-3 1.34-3 3s1.34 3 3 3 3-1.34 3-3-1.34-3-3-3z"
     id="path4" />
  <path
     style="fill:#ffffff;stroke-width:0.10169491"
     d="M 10.281356,19.331339 C 6.5642817,18.795698 3.1875487,16.316311 1.4347905,12.835693 1.0518434,12.075239 1.0517077,12.074512 1.2117949,11.642575 1.6506012,10.458616 2.7443881,8.9327664 4.0125254,7.7355142 5.4684132,6.3610063 7.160566,5.4283347 9.1786065,4.8881018 10.193727,4.6163524 12.587032,4.5164592 13.810183,4.6947862 c 3.632331,0.529569 6.955449,2.952314 8.675493,6.3249358 l 0.490025,0.96083 -0.371613,0.772616 c -1.405966,2.923124 -4.072793,5.228813 -7.145518,6.17788 -1.504772,0.464777 -3.603597,0.627053 -5.177214,0.400291 z m 3.225436,-2.529838 c 1.682073,-0.519539 2.920655,-1.846357 3.383932,-3.624998 C 17.783052,9.7506233 14.650942,6.4019376 11.145763,7.0342954 7.255054,7.7362052 5.6337754,12.447116 8.2726274,15.382697 c 1.2622983,1.404238 3.4027976,1.984456 5.2341646,1.418804 z"
     id="path3717"
     inkscape:connector-curvature="0" />
  <path
     style="fill:#ffffff;stroke-width:0.10169491"
     d="M 11.077877,14.781248 C 8.892546,14.026052 8.3507074,11.32469 10.079356,9.8030734 c 1.402461,-1.2344961 3.532391,-0.8718308 4.491505,0.7647736 0.213056,0.363553 0.281061,0.634321 0.317528,1.264273 0.04306,0.7439 0.02301,0.849156 -0.278375,1.461363 -0.670137,1.361241 -2.124993,1.974038 -3.532137,1.487765 z"
     id="path3719"
     inkscape:connector-curvature="0" />
</svg>
